<mxfile host="app.diagrams.net" modified="2024-02-18T08:22:11.575Z" agent="Mozilla/5.0 (Windows NT 10.0; Win64; x64) AppleWebKit/537.36 (KHTML, like Gecko) Chrome/121.0.0.0 Safari/537.36" version="23.1.4" etag="Og7UTCrH5mlKxO-Q8eJ4" type="github">
  <diagram name="Page-1" id="X_7h8zLOfVIcf5Rycq8-">
    <mxGraphModel>
      <root>
        <mxCell id="0" />
        <mxCell id="1" parent="0" />
      </root>
    </mxGraphModel>
  </diagram>
</mxfile>
